<svg id="Слой_1" data-name="Слой 1" xmlns="http://www.w3.org/2000/svg" viewBox="0 0 354.43 501.65"><defs><style>.cls-1{fill:#542a41;}.cls-2{fill:#fff;}</style></defs><title>логотип</title><rect class="cls-1" x="72.07" y="160.05" width="211.82" height="127.69"/><path class="cls-1" d="M206.07,164.36V320H203.4a22.89,22.89,0,0,1-4.64-.45V164.36Z" transform="translate(-106.61 -32.31)"/><rect class="cls-1" x="108.59" y="132.05" width="7.3" height="155.69"/><rect class="cls-1" x="125.02" y="132.05" width="7.3" height="155.69"/><rect class="cls-1" x="141.46" y="132.05" width="7.3" height="155.69"/><rect class="cls-1" x="157.89" y="132.05" width="7.3" height="155.69"/><rect class="cls-1" x="174.33" y="132.05" width="7.3" height="155.69"/><rect class="cls-1" x="190.76" y="132.05" width="7.3" height="155.69"/><rect class="cls-1" x="207.2" y="132.05" width="7.3" height="155.69"/><rect class="cls-1" x="223.63" y="132.05" width="7.3" height="155.69"/><rect class="cls-1" x="240.06" y="132.05" width="7.3" height="155.69"/><path class="cls-1" d="M370.41,164.36V319.59a23.13,23.13,0,0,1-4.65.45h-2.65V164.36Z" transform="translate(-106.61 -32.31)"/><path class="cls-1" d="M386.85,320V169.83a25.07,25.07,0,0,0-7.31,7.62V320Z" transform="translate(-106.61 -32.31)"/><rect class="cls-1" x="75.72" y="144.83" width="7.3" height="142.91"/><rect class="cls-1" x="72.07" y="165.38" width="211.82" height="124.32"/><circle class="cls-1" cx="91.66" cy="93.51" r="91.66"/><circle class="cls-1" cx="262.77" cy="93.51" r="91.66"/><circle class="cls-1" cx="175.94" cy="91.66" r="91.66"/><circle cx="221.49" cy="334.81" r="11.37"/><circle cx="134.65" cy="334.81" r="11.37"/><path d="M230.91,512.69s28.12,17.94,39,19.84c11.09,1.94,21.47,1.85,29.95,0s38.38-17.26,42.58-24.22c5.65-9.38-.38-39.76-12.81-57.9S306.27,423.49,296.85,424s-9.05,2.62-13.94,2-6.6-2.49-13.94-2-24.49,3.87-39.56,40.78S230.91,512.69,230.91,512.69Z" transform="translate(-106.61 -32.31)"/><path class="cls-2" d="M242.35,469.6a12.29,12.29,0,0,0,.09,3.78c.55,4,1.92,12.59,13.71,17.08,15.71,6,17.68,1.39,19.25,0s8.82-9.39,19.52-1.71c9.82,7.06,15.06,4.31,18.33,3A18.51,18.51,0,0,0,325.3,475.6s1.39-10.79-6-12.94c-6.44-1.87-27.18-6.4-31.17-8.45-3.65-1.87-5.38-.43-9.7,1.29-4,1.59-25.65,5.55-32.22,8.87A6.69,6.69,0,0,0,242.35,469.6Z" transform="translate(-106.61 -32.31)"/></svg>